<?xml version="1.0" encoding="UTF-8" standalone="no"?>
<!DOCTYPE svg PUBLIC "-//W3C//DTD SVG 1.1//EN" "http://www.w3.org/Graphics/SVG/1.1/DTD/svg11.dtd">
<svg width="100%" height="100%" viewBox="0 0 1280 720" version="1.1" xmlns="http://www.w3.org/2000/svg" xmlns:xlink="http://www.w3.org/1999/xlink" xml:space="preserve" xmlns:affinity="https://www.affinity.studio/" style="fill-rule:evenodd;clip-rule:evenodd;stroke-linejoin:round;stroke-miterlimit:2;">
    <g transform="matrix(1,0,0,1,1165,554)">
        <path d="M114.999,2.5L114.999,165.999C112.034,167.091 111.908,165.999 75.5,165.999L16.5,165.999C6.94,150.579 -4.716,147.507 9.228,139.044C12.271,137.197 10.899,135.675 42.324,109.301C44.566,107.419 44.74,103.812 60.25,87.288C60.34,87.192 74.837,67.886 76.249,66.293C76.293,66.243 89.888,45.749 90.249,45.304C94.575,39.978 110.381,8.532 112.018,5.275C113.024,3.274 113.1,3.437 114.999,2.5Z" style="fill:rgb(243,209,200);fill-opacity:0.99;"/>
    </g>
    <g>
        <path d="M1035.266,264.735C1008.856,238.364 965.719,222.897 943.459,219.944C893.316,213.29 858.832,229.341 849.724,232.992C842.969,235.699 843.968,230.869 839.734,222.381C838.767,220.442 806.195,149.992 806.051,149.702C801.721,140.948 805.564,140.364 814.615,136.736C872.928,113.361 916.644,116.891 939.513,117.154C943.554,117.2 978.28,122.482 984.542,124.393C988.015,125.453 1104.042,148.685 1163.272,267.616C1167.331,275.766 1165.334,276.651 1160.715,278.973C1156.975,280.852 1130.101,294.357 1113.377,301.251C1086.077,312.503 1075.548,320.9 1073.352,316.596C1065.661,301.524 1064.966,301.927 1064.342,300.597C1060.747,292.943 1047.466,276.947 1044.265,273.734C1044.058,273.442 1045.22,273.253 1045.012,272.961C1044.668,272.478 1036.424,264.233 1036.039,263.982C1035.738,263.785 1035.568,264.932 1035.266,264.735ZM1035.266,264.735C1035.568,264.932 1035.738,263.785 1036.039,263.982C1036.424,264.233 1044.668,272.478 1045.012,272.961C1045.22,273.253 1044.058,273.442 1044.265,273.734C1043.546,273.013 1037.889,267.354 1035.266,264.735Z" style="fill:rgb(188,189,193);fill-opacity:0.99;"/>
    </g>
    <g transform="matrix(1,0,0,1,749,0)">
        <path d="M80.5,0L257.5,0C265.552,3.056 304.979,11.604 339.384,28.729C344.673,31.362 382.25,50.067 403.247,65.799C497.574,136.472 517.274,198.989 530.999,218.5L530.999,224.5C523.941,225.949 481.036,247.834 471.407,251.282C464.13,253.888 436.694,267.477 433.709,268.956C416.563,277.449 415.613,275.686 414.87,274.307C412.415,269.75 397.341,231.113 349.398,186.618C296.911,137.907 189.862,94.819 81.644,132.936C67.862,137.791 55.315,145.346 53.729,142.362C53.608,142.134 33.872,99.378 32.052,95.708C16.606,64.566 18.539,63.817 3.029,32.712C-1.236,24.16 14.425,23.37 24.615,17.738C32.047,13.63 78.361,1.214 80.5,0Z" style="fill:rgb(193,229,244);fill-opacity:1;"/>
    </g>
    <g transform="matrix(1,0,0,1,643,140)">
        <path d="M3.05,235.493C4.163,142.2 68.933,44.049 155.616,3.734C164.113,-0.219 163.168,4.859 164.875,8.337C166.293,11.227 179.046,37.22 182.121,44.69C194.679,75.196 207.276,93.77 202.555,95.599C194.571,98.693 194.781,98.92 183.263,106.207C165.546,117.414 162.375,122.375 159.246,125.204C155.957,128.176 137.506,144.858 124.983,168.756C95.303,225.399 106.773,274.19 107.014,277.508C108.222,294.15 121.033,319.5 119.598,322.564C119.051,323.732 30.578,364.294 28.497,364.781C26.84,365.169 25.606,359.963 25.006,358.728C4.64,316.844 -0.652,252.814 3.05,235.493Z" style="fill:rgb(242,209,200);fill-opacity:0.99;"/>
    </g>
    <g transform="matrix(-0.999994,-0.003445,0.003445,-0.999994,1192.825076,616.700856)">
        <path d="M102.271,14.182C147.698,70.235 165.686,88.994 166.824,93.983C145.705,114.106 122.528,133.178 108.619,189.546C96.634,238.116 115.193,284.011 118.268,291.614C122.243,301.445 116.079,300.109 100.652,307.814C99.887,308.196 38.544,336.388 33.647,338.813C30.662,340.292 28.239,343.467 25.708,336.411C21.657,325.115 -20.32,244.665 18.373,132.447C38.799,73.205 86.965,23.968 102.271,14.182Z" style="fill:rgb(243,209,200);fill-opacity:0.99;"/>
    </g>
    <g>
        <path d="M790.736,503.266C790.935,503.581 789.766,503.759 789.965,504.073C790.402,504.763 803.255,517.658 803.937,518.028C804.261,518.203 804.411,517.089 804.735,517.264C828.185,540.751 878.977,561.153 910.5,560.973C949.393,560.751 950.911,556.485 952.076,559.602C952.436,560.567 964.007,620.262 965.03,625.54C970.936,656.015 971.89,657.24 969.395,658.054C954.198,663.015 920.749,662.897 916.5,662.882C908.875,662.855 909.024,662.038 901.495,661.927C842.725,661.06 781.244,628.875 759.619,612.309C730.05,589.658 731.046,588.438 728.34,586.665C727.737,583.444 727.457,583.272 724.324,582.676C699.594,557.722 664.93,505.006 672.621,501.961C684.56,497.234 699.336,489.871 701.619,488.734C706.882,486.111 760.66,461.156 761.499,461.157C763.854,461.158 776.352,488.738 790.736,503.266ZM790.736,503.266C791.853,504.389 798.579,511.149 804.735,517.264C804.411,517.089 804.261,518.203 803.937,518.028C803.255,517.658 790.402,504.763 789.965,504.073C789.766,503.759 790.935,503.581 790.736,503.266ZM724.324,582.676C727.457,583.272 727.737,583.444 728.34,586.665C726.276,584.622 726.34,584.686 724.324,582.676Z" style="fill:rgb(188,189,193);fill-opacity:0.99;"/>
    </g>
    <g transform="matrix(1,0,0,1,555,501)">
        <path d="M427.5,218.999L138.5,218.999C131.062,211.404 118.823,206.453 98.296,186.74C96.943,185.441 53.386,150.39 18.042,88.735C-0.171,56.963 1.219,55.022 3.626,53.734C6.309,52.297 6.75,53.361 38.277,38.018C60.673,27.119 115.189,2.033 116.56,2.199C119.006,2.496 167.579,130.986 320.524,156.355C390.627,167.983 414.078,149.646 415.942,157.434C417.316,163.173 427.694,215.103 427.5,218.999Z" style="fill:rgb(193,228,244);fill-opacity:1;"/>
    </g>
    <g transform="matrix(1,0,0,1,251,650)">
        <path d="M137.5,69.999L12.5,69.999C1.239,47.963 1.329,46.886 3.211,46.061C4.198,45.628 12.659,41.918 15.401,40.304C16.577,39.611 96.887,2.292 98.528,1.968C103.938,0.902 103.927,9.687 118.715,35.39C136.887,66.975 137.33,66.853 137.5,69.999Z" style="fill:rgb(137,184,204);fill-opacity:0.99;"/>
    </g>
    <g transform="matrix(1,0,0,1,291,0)">
        <path d="M302.5,0L448.5,0C460.942,26.162 463.737,29.498 456.389,32.036C453.371,33.079 422.282,48.115 394.252,69.208C373.625,84.73 255.705,167.789 233.825,342.549C221.374,441.995 249.523,509.975 259.294,537.587C264.194,551.437 273.351,556.288 259.412,561.293C255.167,562.817 255.48,563.424 208.384,585.267C207.118,585.855 196.151,590.941 192.411,592.293C181.702,596.162 152.785,610.588 149.389,612.282C145.297,614.323 68.041,649.729 63.389,652.269C57.245,655.623 50.334,628.711 45.731,620.388C44.732,618.581 31.893,584.382 22.38,549.547C-19.147,397.481 15.277,259.827 21.373,235.45C23.716,226.081 38.164,174.414 41.437,174.142C45.633,173.794 54.553,178.687 111.326,198.882C120.667,202.205 145.511,211.446 148.479,212.55C153.765,214.516 152.9,211.017 159.529,194.512C172.357,162.569 198.966,116.487 206.375,107.404C216.164,95.402 214.05,93.985 224.37,82.396C233.365,72.295 232.021,71.296 241.361,61.382C248.304,54.012 247.103,52.976 270.033,30.04C291.62,8.447 294.7,8.779 302.5,0Z" style="fill:rgb(242,209,200);fill-opacity:1;"/>
    </g>
    <g transform="matrix(1,0,0,1,330,0)">
        <path d="M98.5,0L266.5,0C266.286,1.481 266.273,1.568 253.242,13.198C157.738,98.44 133.682,174.402 118.956,204.695C115.069,212.69 117.121,218.633 109.312,214.945C99.158,210.151 72.686,201.633 69.46,200.595C36.445,189.972 37.37,187.704 4.45,176.616C2.183,175.852 -0.664,174.25 11.731,147.613C17.396,135.44 30.521,101.963 60.793,53.736C78.303,25.841 97.344,2.732 98.5,0Z" style="fill:rgb(188,189,193);fill-opacity:0.99;"/>
    </g>
    <g>
        <path d="M295.5,0L431.5,0C430.838,4.964 422.445,11.841 407.922,33.752C407.808,33.925 366.952,89.052 336.211,169.375C334.215,174.59 334.759,177.235 329.58,175.337C247.518,145.266 247.504,145.438 240.428,142.677C240.633,142.583 242.989,141.5 242.989,141.5C243.481,140.452 242.488,141.292 241.5,140.883L240.144,140.5C239.401,140.293 231.272,138.029 231.374,136.5C231.417,135.862 239.473,115.279 240.282,113.5L240.676,112.5L241.092,111.5L241.5,110.494C243.392,105.914 243.355,106.028 245.178,101.5C245.75,100.688 247.085,97.174 247.5,96.31C252.802,84.55 252.676,84.516 253.147,83.5C253.653,82.179 257.979,73.376 258.41,72.5C258.568,72.188 258.524,72.214 260.192,68.5L260.76,67.5L259.29,66.394C261.195,62.352 263.1,58.309 265.005,54.267C265.687,54.603 265.818,55.654 266.5,55.991C266.568,56.024 277.288,34.614 294.148,6.5C295.164,4.783 295.363,5.017 296.084,3.23C296.803,1.447 295.085,1.273 295.061,1.224L295.5,0ZM259.29,66.394L260.76,67.5L260.192,68.5C258.524,72.214 258.568,72.188 258.41,72.5C257.979,73.376 253.653,82.179 253.147,83.5C252.676,84.516 252.802,84.55 247.5,96.31C247.085,97.174 245.75,100.688 245.178,101.5C243.355,106.028 243.392,105.914 241.5,110.494L241.092,111.5L240.676,112.5L240.282,113.5C239.473,115.279 231.417,135.862 231.374,136.5C231.272,138.029 239.401,140.293 240.144,140.5L241.5,140.883C242.488,141.292 243.481,140.452 242.989,141.5C242.989,141.5 240.633,142.583 240.428,142.677C237.833,141.766 235.211,140.937 232.616,140.026C226.319,137.816 230.79,132.027 239.692,109.581C246.977,91.211 257.604,69.793 259.29,66.394ZM295.061,1.224C295.085,1.273 296.803,1.447 296.084,3.23C295.363,5.017 295.164,4.783 294.148,6.5C277.288,34.614 266.568,56.024 266.5,55.991C265.818,55.654 265.687,54.603 265.005,54.267C267.586,50.129 266.714,49.671 295.061,1.224Z" style="fill:rgb(193,228,244);fill-opacity:1;"/>
    </g>
</svg>
